<svg xmlns="http://www.w3.org/2000/svg" viewBox="0 0 240 240" width="240" height="240" role="img" aria-label="Linny the SELAR linnet: kept a link"><title>Linny the SELAR linnet: kept a link</title><path d="M34 58 L37.6 66.4 L46 70 L37.6 73.6 L34 82 L30.4 73.6 L22 70 L30.4 66.4 Z" fill="#F6C453"/><path d="M206 52 L210.2 61.8 L220 66 L210.2 70.2 L206 80 L201.8 70.2 L192 66 L201.8 61.8 Z" fill="#F6C453"/><path d="M120 13 L122.7 19.3 L129 22 L122.7 24.7 L120 31 L117.3 24.7 L111 22 L117.3 19.3 Z" fill="#F6C453"/><path d="M24 143 L26.1 147.9 L31 150 L26.1 152.1 L24 157 L21.9 152.1 L17 150 L21.9 147.9 Z" fill="#F6C453"/><path d="M216 132 L218.4 137.6 L224 140 L218.4 142.4 L216 148 L213.6 142.4 L208 140 L213.6 137.6 Z" fill="#F6C453"/><g transform="translate(120 144) scale(0.8) translate(-120 -134)"><ellipse cx="42.3" cy="116.8" rx="16" ry="38.0" transform="rotate(-38 42.3 116.8)" fill="#5B8A6F" stroke="#0F172A" stroke-width="3.5"/><ellipse cx="197.7" cy="116.8" rx="16" ry="38.0" transform="rotate(38 197.7 116.8)" fill="#5B8A6F" stroke="#0F172A" stroke-width="3.5"/><g transform="rotate(0 120 150)"><path d="M106 196 v12 M100 210 h12 M134 196 v12 M128 210 h12" stroke="#D97706" stroke-width="5" stroke-linecap="round"/><path d="M116 70 C106 50 118 38 130 44 C121 49 121 58 127 68 Z" fill="#1F5135" stroke="#0F172A" stroke-width="3.5" stroke-linejoin="round"/><ellipse cx="120" cy="134" rx="68" ry="66" fill="#1F5135" stroke="#0F172A" stroke-width="3.5"/><path d="M80 160 C82 132 158 132 160 160 C158 188 82 188 80 160 Z" fill="#FFF6E6"/><circle cx="86" cy="134" r="8.5" fill="#EE9A78" opacity=".75"/><circle cx="154" cy="134" r="8.5" fill="#EE9A78" opacity=".75"/><path d="M92 120 Q101 106 110 120" fill="none" stroke="#0F172A" stroke-width="5" stroke-linecap="round"/><path d="M130 120 Q139 106 148 120" fill="none" stroke="#0F172A" stroke-width="5" stroke-linecap="round"/><path d="M110 131 L130 131 L120 140 Z" fill="#D97706" stroke="#D97706" stroke-width="4" stroke-linejoin="round"/><path d="M114 142 L126 142 L120 148 Z" fill="#B45309" stroke="#B45309" stroke-width="3" stroke-linejoin="round"/></g></g><circle cx="196" cy="200" r="19" fill="#1F5135" stroke="#0F172A" stroke-width="3.5"/><path d="M187 200 l6 6 l12 -13" fill="none" stroke="#FFFFFF" stroke-width="5" stroke-linecap="round" stroke-linejoin="round"/></svg>