<svg xmlns="http://www.w3.org/2000/svg" viewBox="0 0 358 100" width="358" height="100" role="img" aria-label="SELAR"><title>SELAR</title><g transform="translate(0 0.0)"><rect x="4" y="14" width="40" height="72" rx="7" fill="#FFFFFF"/><rect x="56" y="14" width="40" height="72" rx="7" fill="#FFFFFF"/><line x1="12" y1="30" x2="32" y2="30" stroke="#0F172A" stroke-width="4" stroke-linecap="round" opacity=".55"/><line x1="12" y1="42" x2="36" y2="42" stroke="#0F172A" stroke-width="4" stroke-linecap="round" opacity=".55"/><line x1="12" y1="54" x2="32" y2="54" stroke="#0F172A" stroke-width="4" stroke-linecap="round" opacity=".55"/><line x1="12" y1="66" x2="36" y2="66" stroke="#0F172A" stroke-width="4" stroke-linecap="round" opacity=".55"/><line x1="64" y1="30" x2="84" y2="30" stroke="#0F172A" stroke-width="4" stroke-linecap="round" opacity=".55"/><line x1="64" y1="42" x2="88" y2="42" stroke="#0F172A" stroke-width="4" stroke-linecap="round" opacity=".55"/><line x1="64" y1="54" x2="84" y2="54" stroke="#0F172A" stroke-width="4" stroke-linecap="round" opacity=".55"/><line x1="64" y1="66" x2="88" y2="66" stroke="#0F172A" stroke-width="4" stroke-linecap="round" opacity=".55"/><line x1="12" y1="42" x2="36" y2="42" stroke="#0F172A" stroke-width="6" stroke-linecap="round"/><line x1="64" y1="62" x2="88" y2="62" stroke="#0F172A" stroke-width="6" stroke-linecap="round"/><path d="M36 42 C52 42 48 62 64 62" fill="none" stroke="#0F172A" stroke-width="12" stroke-linecap="round"/><path d="M36 42 C52 42 48 62 64 62" fill="none" stroke="#FFFFFF" stroke-width="6" stroke-linecap="round"/><circle cx="36" cy="42" r="6" fill="#FFFFFF" stroke="#0F172A" stroke-width="2.5"/><circle cx="64" cy="62" r="6" fill="#FFFFFF" stroke="#0F172A" stroke-width="2.5"/></g><path transform="translate(122 78.1)" d="M23.942849218845367 -5.854793774336577Q26.644268188625574 -5.854793774336577 27.93131989762187 -6.965613098070026Q29.218371606618167 -8.076432421803474 29.218371606618167 -9.602734155207873Q29.218371606618167 -10.642629247903825 28.659092273190616 -11.481046142429115Q28.09981293976307 -12.319463036954403 26.887086487188938 -12.993841955438256Q25.674360034614804 -13.66822087392211 23.685919458419086 -14.150168359279633Q15.960384204238654 -15.968294750899076 11.393181543052197 -18.35671470947564Q6.8259788818657405 -20.7451346680522 4.837921362370253 -23.997684680297972Q2.8498638428747656 -27.250234692543746 2.8498638428747656 -31.614018310606482Q2.8498638428747656 -38.77963574230671 7.781700525060296 -43.150116821378475Q12.713537207245828 -47.520597900450234 22.84560109898448 -47.520597900450234Q25.790067944675684 -47.520597900450234 27.88726369664073 -46.975264038145546Q29.984459448605776 -46.42993017584086 31.4540534183383 -45.882729480043054Q32.923647388070826 -45.335528784245255 33.968574731796984 -45.335528784245255Q34.92203205600381 -45.335528784245255 35.59272286407649 -45.89419577643275Q36.263413672149184 -46.45286276862026 36.98123972192407 -47.01339659430087Q37.699065771698955 -47.57393041998148 38.773860986530785 -47.57393041998148Q40.11811315938831 -47.57393041998148 41.20276702903212 -46.686106933653356Q42.28742089867592 -45.79828344732523 43.02927839383483 -43.50830541998148L44.70609936565161 -38.49069804698229Q45.722418701648714 -35.452333032339816 45.19316170699895 -33.348394262790684Q44.66390471234918 -31.24445549324155 42.878993237763645 -30.575197216868403Q41.0431500248611 -29.89333959966898 39.07707808874548 -30.585266333073378Q37.111006152629855 -31.27719306647778 35.661560302972795 -33.14990720227361Q33.971028125286104 -35.535329467803244 32.158020068705085 -37.16620325930417Q30.345012012124062 -38.79707705080509 28.290168872475626 -39.627410791069266Q26.23532573282719 -40.45774453133345 23.813720532506707 -40.45774453133345Q20.955676098912956 -40.45774453133345 19.594092151150107 -39.19152528084815Q18.232508203387262 -37.92530603036285 18.232508203387262 -36.0884130127728Q18.232508203387262 -34.786659204214814 18.94942155778408 -33.784909912198785Q19.6663349121809 -32.783160620182755 21.344989013671878 -32.034047729521994Q23.02364311516285 -31.28493483886123 25.866133276373148 -30.719854736328127Q32.142816650867466 -29.646182983368636 36.29075798392296 -27.476660876348618Q40.43869931697846 -25.307138769328596 42.50795747116209 -21.98469108864665Q44.57721562534571 -18.662243407964706 44.57721562534571 -14.139193823188544Q44.57721562534571 -9.494822949171066 42.074903125315906 -6.038874230906368Q39.572590625286104 -2.5829255126416686 35.13939064964652 -0.6544670287519694Q30.70619067400694 1.2739914551377298 24.907161962985995 1.2739914551377298Q21.236638574302198 1.2739914551377298 19.082711901888253 0.7186219360679389Q16.928785229474308 0.16325241699814796 15.803322412073612 -0.4005169067531824Q14.677859594672919 -0.9642862305045128 14.085993066430092 -0.9642862305045128Q13.178799755871296 -0.9642862305045128 12.459910327196122 -0.4005169067531824Q11.741020898520947 0.16325241699814796 10.988997692987324 0.7186219360679389Q10.2369744874537 1.2739914551377298 9.229912085086108 1.2739914551377298Q7.994257666170597 1.2739914551377298 7.111001709103585 0.42006826177239426Q6.227745752036572 -0.4338549315929413 5.767285376042128 -2.5202302001416683L4.455006347596646 -8.589886669814588Q3.891810961812735 -11.363134326040745 4.305768652260303 -13.268311584368348Q4.719726342707872 -15.173488842695953 6.6373038329184055 -15.677349633723498Q8.267353539913893 -16.09561303704977 9.916500207409264 -15.25668734125793Q11.565646874904633 -14.41776164546609 13.068162573128939 -12.354239843785763Q15.397219726443291 -8.981813427805902 18.035790490731596 -7.418303601071239Q20.674361255019903 -5.854793774336577 23.942849218845367 -5.854793774336577ZM96.37174387201668 -29.795157177746297Q96.37174387201668 -25.946719262748957 94.20173012688757 -23.86897026374936Q92.03171638175846 -21.791221264749765 88.09508076161146 -21.791221264749765H61.13597917482257V-27.673434130847454H75.46140576153994Q78.58186369612812 -27.673434130847454 78.58186369612812 -30.78075456544757Q78.58186369612812 -34.892377343773845 76.84063529036939 -36.890275000035764Q75.09940688461066 -38.888172656297684 72.66341508775949 -38.888172656297684Q70.68950046375394 -38.888172656297684 69.07429965808988 -37.723882641643286Q67.45909885242583 -36.55959262698889 66.51178050525488 -34.16312487795949Q65.56446215808391 -31.766657128930092 65.56446215808391 -28.0107577636838Q65.56446215808391 -19.661940576136114 69.40740817859768 -15.51778879389167Q73.25035419911146 -11.373637011647226 79.61290029287338 -11.373637011647226Q82.89301335439086 -11.373637011647226 85.82435679920017 -12.618202148377897Q88.75570024400949 -13.862767285108568 90.86027956530452 -15.965328027307988Q92.02792714834214 -16.98138701170683 92.75605299063028 -17.37091864012182Q93.48417883291842 -17.760450268536808 94.15577475577592 -17.71458508297801Q94.9904366210103 -17.691652490198614 95.61796190179885 -17.030156518518925Q96.2454871825874 -16.368660546839237 96.2389530517161 -14.84361108392477Q96.18434699699283 -10.68996118158102 93.50669080801308 -7.0300751708447935Q90.82903461903334 -3.3701891601085663 85.97142574451864 -1.0914973754435777Q81.11381687000394 1.1871944092214108 74.4951866209507 1.1871944092214108Q66.95461486801506 1.1871944092214108 61.36610441878439 -1.7872693236917259Q55.77759396955371 -4.761733056604863 52.71250744611025 -10.120193371549249Q49.64742092266679 -15.478653686493637 49.64742092266679 -22.555643432587388Q49.64742092266679 -29.726361718773845 52.593311572074896 -35.36648518070579Q55.539202221482995 -41.00660864263773 61.24197827130556 -44.263603271543985Q66.94475432112813 -47.520597900450234 75.15564321279527 -47.520597900450234Q81.72707160636783 -47.520597900450234 86.48394974358379 -45.124838159233335Q91.24082788079977 -42.729078418016435 93.80628587640823 -38.70288486331701Q96.37174387201668 -34.67669130861759 96.37174387201668 -29.795157177746297ZM123.0804481200874 -71.0779267333448V-12.6458740234375Q123.0804481200874 -10.324560546875 123.45661883540453 -9.439197619631887Q123.83278955072166 -8.553834692388774 124.5504676513374 -8.085972436517478L125.43202851563693 -7.6125732421875005Q126.51675583496692 -6.88304948732257 127.0958190917969 -5.986593627929688Q127.67488234862687 -5.090137768536806 127.67488234862687 -3.746018823236227Q127.67488234862687 -1.991973876953125 126.59709525145593 -0.9959869384765625Q125.51930815428497 0.0 123.63526210933925 0.0H104.75169948711992Q102.89431970193984 0.0 101.80319947488607 -0.9959869384765625Q100.7120792478323 -1.991973876953125 100.7120792478323 -3.746018823236227Q100.7120792478323 -5.090137768536806 101.29114250466228 -5.986593627929688Q101.87020576149226 -6.88304948732257 102.95493308082224 -7.6125732421875005L103.84396127909423 -8.085972436517478Q104.58457197248937 -8.553834692388774 104.9492763914168 -9.439197619631887Q105.31398081034423 -10.324560546875 105.31398081034423 -12.6458740234375V-58.09166975095869Q105.31398081034423 -60.0709872558713 104.84424866922201 -60.846282958984375Q104.37451652809979 -61.621578662097455 103.47358100563288 -62.07163801267743L102.34325937479736 -62.37549880370498Q101.24886408671738 -62.994689306616785 100.6741689451039 -63.76281453855336Q100.09947380349041 -64.53093977048994 100.09947380349041 -65.7381924316287Q100.09947380349041 -67.11744216307999 100.92766509987415 -68.09283110350371Q101.75585639625788 -69.06822004392744 103.69017036110164 -69.82434460446238L112.86488940417767 -73.38063964843751Q115.18246542960406 -74.29896240234375 116.61895108632744 -74.68665876463055Q118.05543674305082 -75.07435512691737 119.46534907221795 -75.07435512691737Q121.19546655267479 -75.07435512691737 122.13795733638109 -73.95966669917107Q123.0804481200874 -72.84497827142478 123.0804481200874 -71.0779267333448ZM159.93965454101564 -7.5966087646782405V-8.997413989156485L158.32001721188428 -9.357690820097924V-36.01517270505428Q158.32001721188428 -38.313756274431945 157.1430890258402 -39.6289799194783Q155.9661608397961 -40.944203564524656 153.8773115478456 -40.944203564524656Q152.20812546387316 -40.944203564524656 151.11270362548532 -40.175451037660245Q150.01728178709746 -39.406698510795835 150.01728178709746 -38.14620529785753V-35.38594445809722Q150.01728178709746 -31.649853100627663 147.62671497799457 -29.644576501473786Q145.23614816889167 -27.63929990231991 140.7812773436308 -27.63929990231991Q136.8146612547338 -27.63929990231991 134.90445175766945 -29.3787847045809Q132.9942422606051 -31.118269506841898 132.9942422606051 -34.163170971721414Q132.9942422606051 -37.41650117188692 135.79008913561702 -40.4700917236507Q138.58593601062896 -43.52368227541447 144.1800907470286 -45.49734066165984Q149.77424548342825 -47.47099904790521 158.10323720723392 -47.47099904790521Q167.2453219726682 -47.47099904790521 171.60857176519931 -43.78593908697367Q175.97182155773044 -40.10087912604213 175.97182155773044 -33.71075712889433V-12.029869140684605Q175.97182155773044 -11.226659106463195 176.38842480480673 -10.601656787097454Q176.805028051883 -9.976654467731715 177.81396381855012 -9.976654467731715Q178.3887674562633 -9.976654467731715 178.7532366823405 -10.14742336422205Q179.11770590841772 -10.318192260712387 179.4247066408396 -10.562063916027547Q179.68264057636262 -10.743800512701274 179.9784071534872 -10.891902844235302Q180.2741737306118 -11.04000517576933 180.6746403321624 -11.04000517576933Q181.7548933595419 -11.04000517576933 182.34898684099318 -10.204147863760593Q182.94308032244444 -9.368290551751853 182.94308032244444 -8.159234619140625Q182.94308032244444 -5.940191015601158 181.53112879656254 -3.780948608368635Q180.11917727068067 -1.6217062011361123 177.5299052491784 -0.21538906246423728Q174.94063322767616 1.1909280762076377 171.375472509861 1.1909280762076377Q166.47365175783636 1.1909280762076377 163.20665314942602 -1.2673514526337386Q159.93965454101564 -3.725630981475115 159.93965454101564 -7.5966087646782405ZM131.2320341795683 -10.507387353479864Q131.2320341795683 -17.22689755856991 137.066241235286 -21.124821728467943Q142.9004482910037 -25.022745898365976 152.78080927729607 -25.022745898365976Q155.36254208981993 -25.022745898365976 157.57105460204184 -24.69587601311505Q159.77956711426378 -24.369006127864125 161.20758225098254 -23.747469555586576L159.47721052244307 -18.43418452143669Q158.33578764647245 -19.026188915967943 157.20882673338056 -19.303727136179806Q156.08186582028867 -19.58126535639167 154.71010236814618 -19.58126535639167Q152.14984130859375 -19.58126535639167 150.62067292481663 -18.074448046833275Q149.09150454103948 -16.567630737274886 149.09150454103948 -14.02786191403866Q149.09150454103948 -11.434633447229864 150.5493590332568 -9.998456750437619Q152.00721352547407 -8.562280053645372 154.42204023450614 -8.562280053645372Q156.27781857922673 -8.562280053645372 157.8106620118022 -9.333538806065917Q159.34350544437768 -10.104797558486462 160.21374343261124 -11.216384545713664L161.40967407226563 -6.031843066215515Q159.09873110353948 -2.595892529189587 154.71839968264104 -0.7024822264909746Q150.3380682617426 1.1909280762076377 145.33440151363612 1.1909280762076377Q138.845485278219 1.1909280762076377 135.03875972889364 -2.094395288079977Q131.2320341795683 -5.379718652367592 131.2320341795683 -10.507387353479864ZM205.2045332275331 -25.433051171898843Q205.2045332275331 -33.02575664073229 207.07150068357586 -37.91744586192071Q208.93846813961864 -42.80913508310914 212.16686422117056 -45.16860015876591Q215.39526030272245 -47.528065234422684 219.49304599612952 -47.528065234422684Q224.0504950195551 -47.528065234422684 226.64404991455376 -44.54315070807934Q229.23760480955244 -41.55823618173599 229.23760480955244 -35.68408498540521Q229.23760480955244 -30.078759765625 227.05183315426112 -27.451191552728417Q224.8660614989698 -24.82362333983183 221.30590798333287 -24.82362333983183Q217.60135686025023 -24.82362333983183 215.7247804686427 -26.54773917235434Q213.84820407703518 -28.271855004876855 213.84820407703518 -31.27229340821505V-33.25334641113877Q213.84820407703518 -34.65381911620498 213.268031347543 -35.29612153321504Q212.68785861805083 -35.938423950225115 211.64957946762442 -35.938423950225115Q210.45588439926505 -35.938423950225115 209.45822352282704 -34.8955742187798Q208.460562646389 -33.85272448733449 207.87894401848317 -31.767693359404802Q207.29732539057733 -29.682662231475117 207.29732539057733 -26.56761706545949ZM206.23954445794226 -42.92090244144202 207.29732539057733 -33.19554233402014V-12.6458740234375Q207.29732539057733 -10.516624291986227 207.89852578118445 -9.419297631829977Q208.49972617179156 -8.321970971673727 209.93119106441736 -8.085972436517478L213.20066865235566 -7.6125732421875005Q214.8873857177794 -7.366775830090046 215.6355801269412 -6.315888293460011Q216.383774536103 -5.265000756829977 216.383774536103 -3.746018823236227Q216.383774536103 -2.032107226550579 215.3160207763314 -1.0160536132752895Q214.24826701655985 0.0 212.2839542724192 0.0H189.19790268540382Q187.34052290022373 0.0 186.24940267316998 -0.9959869384765625Q185.1582824461162 -1.991973876953125 185.1582824461162 -3.746018823236227Q185.1582824461162 -5.090137768536806 185.7373457029462 -5.975127331539989Q186.31640895977617 -6.860116894543172 187.40113627910614 -7.6125732421875005L188.29016447737814 -8.085972436517478Q189.03077517077327 -8.550968774408103 189.3954795897007 -9.437764660641552Q189.76018400862813 -10.324560546875 189.76018400862813 -12.6458740234375V-30.4506366699934Q189.76018400862813 -32.429954174906015 189.2904518675059 -33.205249878019096Q188.8207197263837 -33.980545581132176 187.91978420391678 -34.43060493171215L186.78946257308127 -34.7344657227397Q185.69506728500127 -35.353656225651505 185.12037214338778 -36.12178145758808Q184.54567700177432 -36.88990668952465 184.54567700177432 -38.097159350663425Q184.54567700177432 -39.4764090821147 185.38390163555744 -40.46183135993779Q186.22212626934052 -41.44725363776088 188.13637355938553 -42.18331152349711L197.4916926756501 -45.81987326666713Q199.44807380363346 -46.58913154304028 200.7942620482296 -47.01122679449618Q202.1404502928257 -47.43332204595208 203.08883959949017 -47.43332204595208Q204.39469624012708 -47.43332204595208 205.16662291251123 -46.47916439212859Q205.93854958489538 -45.525006738305095 206.23954445794226 -42.92090244144202Z" fill="#FFFFFF"/></svg>